<?xml version="1.0" encoding="utf-8"?>
<!-- Svg Vector Icons : http://www.onlinewebfonts.com/icon -->
<!DOCTYPE svg PUBLIC "-//W3C//DTD SVG 1.1//EN" "http://www.w3.org/Graphics/SVG/1.1/DTD/svg11.dtd">
<svg version="1.1" xmlns="http://www.w3.org/2000/svg" xmlns:xlink="http://www.w3.org/1999/xlink" x="0px" y="0px" viewBox="0 0 1000 1000" enable-background="new 0 0 1000 1000" xml:space="preserve">
<metadata> Svg Vector Icons : http://www.onlinewebfonts.com/icon </metadata>
<g><g><g><path d="M467.7,755.6c-32.3,0-51.2,30.8-51.2,71.9c0,41.4,19.5,70.6,51.5,70.6c32.3,0,50.8-30.8,50.8-71.9C518.9,788.2,500.7,755.6,467.7,755.6z"/><path d="M855.3,244.8c-0.1-4.5-1.5-8.9-4.6-12.4l-189-215.8c0-0.1-0.1-0.1-0.2-0.1c-1.1-1.3-2.4-2.3-3.8-3.2c-0.4-0.3-0.8-0.5-1.3-0.7c-1.2-0.7-2.5-1.2-3.8-1.6c-0.4-0.1-0.7-0.2-1-0.3c-1.4-0.3-2.9-0.6-4.4-0.6H182.9c-21.2,0-38.4,17.2-38.4,38.4v903.1c0,21.2,17.2,38.4,38.4,38.4h634.1c21.2,0,38.4-17.2,38.4-38.4V247C855.5,246.3,855.4,245.6,855.3,244.8z M359.4,932.6H227.3V721h48v171.4h84.1V932.6z M465.5,936c-62.8,0-99.5-47.4-99.5-107.6c0-63.4,40.5-110.8,102.9-110.8c65,0,100.4,48.7,100.4,107C569.4,894,527.4,936,465.5,936z M777.6,922.9c-14.8,5-42.7,11.9-70.6,11.9c-38.6,0-66.5-9.7-86-28.6c-19.5-18.2-30.1-45.8-29.8-76.9c0.3-70.3,51.5-110.5,120.8-110.5c27.3,0,48.3,5.3,58.7,10.4l-10,38.3c-11.6-5-26-9.1-49.3-9.1c-39.9,0-70,22.6-70,68.4c0,43.6,27.3,69.4,66.6,69.4c11,0,19.8-1.3,23.5-3.1v-44.3h-32.6v-37.4h78.8L777.6,922.9L777.6,922.9z M182.9,662.5V48.4h445.2v196.6c0,10.6,8.6,19.2,19.2,19.2h169.7l0,398.3L182.9,662.5L182.9,662.5z"/></g><g><path d="M644.9,173.3h-27.2v46.4c0,8.4-6.8,15.2-15.2,15.2c-8.4,0-15.2-6.8-15.2-15.2v-46.4h-48v46.4c0,8.4-6.8,15.2-15.2,15.2c-8.4,0-15.2-6.8-15.2-15.2v-46.4h-59.3v46.4c0,8.4-6.8,15.2-15.2,15.2c-8.4,0-15.2-6.8-15.2-15.2v-46.4h-48v46.4c0,8.4-6.8,15.2-15.2,15.2c-8.4,0-15.2-6.8-15.2-15.2v-46.4h-12.8c-15.9,0-28.8,12.9-28.8,28.8v374.7c0,15.9,12.9,28.8,28.8,28.8h317.1c15.9,0,28.8-12.9,28.8-28.8V202.1C673.7,186.2,660.8,173.3,644.9,173.3z M649.7,576.9H316.7V288.6h333.1L649.7,576.9L649.7,576.9z"/><path d="M371.1,168.5c0-8.4-6.8-15.2-15.2-15.2c-8.4,0-15.2,6.8-15.2,15.2v4.8h30.4L371.1,168.5L371.1,168.5z"/><path d="M449.6,168.5c0-8.4-6.8-15.2-15.2-15.2c-8.4,0-15.2,6.8-15.2,15.2v4.8h30.4L449.6,168.5L449.6,168.5z"/><path d="M539.2,168.5c0-8.4-6.8-15.2-15.2-15.2c-8.4,0-15.2,6.8-15.2,15.2v4.8h30.4L539.2,168.5L539.2,168.5z"/><path d="M617.7,168.5c0-8.4-6.8-15.2-15.2-15.2c-8.4,0-15.2,6.8-15.2,15.2v4.8h30.4L617.7,168.5L617.7,168.5z"/><path d="M355.9,343.9h246.6c2.7,0,4.8-2.2,4.8-4.8s-2.1-4.8-4.8-4.8H355.9c-2.7,0-4.8,2.2-4.8,4.8S353.2,343.9,355.9,343.9z"/><path d="M355.9,399.9h246.6c2.7,0,4.8-2.2,4.8-4.8c0-2.7-2.1-4.8-4.8-4.8H355.9c-2.7,0-4.8,2.2-4.8,4.8C351.1,397.8,353.2,399.9,355.9,399.9z"/><path d="M355.9,465.6h246.6c2.7,0,4.8-2.2,4.8-4.8c0-2.7-2.1-4.8-4.8-4.8H355.9c-2.7,0-4.8,2.2-4.8,4.8C351.1,463.4,353.2,465.6,355.9,465.6z"/><path d="M355.9,521.6h246.6c2.7,0,4.8-2.2,4.8-4.8s-2.1-4.8-4.8-4.8H355.9c-2.7,0-4.8,2.2-4.8,4.8S353.2,521.6,355.9,521.6z"/></g></g><g></g><g></g><g></g><g></g><g></g><g></g><g></g><g></g><g></g><g></g><g></g><g></g><g></g><g></g><g></g></g>
</svg>